<svg width="18" height="24" viewBox="0 0 18 24" fill="none" xmlns="http://www.w3.org/2000/svg">
<path fill-rule="evenodd" clip-rule="evenodd" d="M15.9563 21.9087C17.555 21.0057 17.9139 18.8795 16.8063 17.4356L15.4374 15.6481C14.5366 14.4723 12.9209 14.1002 11.6273 14.8312L11.6016 14.8456C11.4127 14.9516 11.1874 15.0281 10.9958 14.927C10.5938 14.7439 9.80275 14.1425 8.75383 12.2605C7.70492 10.3785 7.60672 9.38401 7.6607 8.93908C7.67754 8.717 7.86339 8.5596 8.05736 8.45015L8.29752 8.31464C9.44725 7.6644 10.0044 6.32739 9.7117 5.04037L9.19375 2.77202C8.75329 0.828855 6.58236 -0.240614 4.82138 0.753418L2.95558 1.80799C2.36752 2.14052 1.81107 2.65308 1.52742 3.38906C0.829157 5.20427 -0.169704 9.61001 3.08528 15.452C6.12422 20.9043 9.58963 22.7612 11.3813 23.3773C12.2875 23.6877 13.1884 23.472 13.8942 23.0726L15.9563 21.9087ZM15.5329 18.4111C16.0833 19.1293 15.8655 20.1172 15.1666 20.5119L13.1052 21.6771C12.6718 21.922 12.2532 21.9799 11.9027 21.8591C10.4788 21.3697 7.3303 19.7731 4.4865 14.6702C1.50411 9.31719 2.46585 5.41891 3.02587 3.96491C3.1394 3.66787 3.38316 3.40968 3.74397 3.20551L5.61051 2.15226C6.36909 1.7232 7.4096 2.15695 7.62998 3.12801L8.1469 5.39608C8.28854 6.02271 8.01274 6.63198 7.50809 6.91683C7.17761 7.1032 7.06073 7.52215 7.24699 7.85269L7.30418 7.95418C6.95963 7.34274 6.91484 7.26679 6.90902 7.25735C6.90847 7.25647 6.9076 7.25612 6.90657 7.25632C6.90606 7.25642 6.90557 7.2566 6.90512 7.25685L6.90185 7.25869L6.89364 7.26416L6.87488 7.27556C6.8223 7.30767 6.7726 7.34426 6.72632 7.38493C6.64856 7.45197 6.5571 7.54405 6.46811 7.66684C6.28589 7.91567 6.12659 8.26874 6.06862 8.74366C5.9545 9.67512 6.23041 11.0297 7.35158 13.042C8.47304 15.0533 9.4766 15.9979 10.3297 16.3867C10.7649 16.5858 11.1496 16.6328 11.4572 16.606C11.6299 16.5921 11.7993 16.5504 11.9587 16.4825L12.004 16.4597L12.0235 16.4496L12.0314 16.4451L12.0354 16.4429L12.038 16.4414L12.416 16.2277C12.9797 15.9105 13.7253 16.0535 14.1637 16.6246L15.5329 18.4111Z" fill="white"/>
</svg>
